<mxfile modified="2021-01-19T03:07:24.190Z" host="app.diagrams.net" agent="5.0 (Windows NT 10.0; Win64; x64) AppleWebKit/537.36 (KHTML, like Gecko) Chrome/69.0.3497.81 Safari/537.36" etag="D429j1GCEP4Zd1DWfaDT" version="14.1.9" type="github">
  <diagram name="Page-1" id="9f46799a-70d6-7492-0946-bef42562c5a5">
    <mxGraphModel dx="2062" dy="1082" grid="1" gridSize="10" guides="1" tooltips="1" connect="1" arrows="1" fold="1" page="1" pageScale="1" pageWidth="1100" pageHeight="850" background="#ffffff" math="0" shadow="0">
      <root>
        <mxCell id="0" />
        <mxCell id="1" parent="0" />
        <mxCell id="78961159f06e98e8-17" value="ArchiveStorageReader" style="swimlane;html=1;fontStyle=1;align=center;verticalAlign=top;childLayout=stackLayout;horizontal=1;startSize=26;horizontalStack=0;resizeParent=1;resizeLast=0;collapsible=1;marginBottom=0;swimlaneFillColor=#ffffff;rounded=0;shadow=0;comic=0;labelBackgroundColor=none;strokeColor=#000000;strokeWidth=1;fillColor=none;fontFamily=Verdana;fontSize=12;fontColor=#000000;" parent="1" vertex="1">
          <mxGeometry x="80" y="81" width="280" height="254" as="geometry" />
        </mxCell>
        <mxCell id="78961159f06e98e8-21" value="Header" style="text;html=1;strokeColor=none;fillColor=none;align=left;verticalAlign=top;spacingLeft=4;spacingRight=4;whiteSpace=wrap;overflow=hidden;rotatable=0;points=[[0,0.5],[1,0.5]];portConstraint=eastwest;" parent="78961159f06e98e8-17" vertex="1">
          <mxGeometry y="26" width="280" height="26" as="geometry" />
        </mxCell>
        <mxCell id="78961159f06e98e8-23" value="BlocksInfo" style="text;html=1;strokeColor=none;fillColor=none;align=left;verticalAlign=top;spacingLeft=4;spacingRight=4;whiteSpace=wrap;overflow=hidden;rotatable=0;points=[[0,0.5],[1,0.5]];portConstraint=eastwest;" parent="78961159f06e98e8-17" vertex="1">
          <mxGeometry y="52" width="280" height="26" as="geometry" />
        </mxCell>
        <mxCell id="78961159f06e98e8-25" value="DirectoryInfo" style="text;html=1;strokeColor=none;fillColor=none;align=left;verticalAlign=top;spacingLeft=4;spacingRight=4;whiteSpace=wrap;overflow=hidden;rotatable=0;points=[[0,0.5],[1,0.5]];portConstraint=eastwest;" parent="78961159f06e98e8-17" vertex="1">
          <mxGeometry y="78" width="280" height="26" as="geometry" />
        </mxCell>
        <mxCell id="78961159f06e98e8-26" value="arrUncompressedBlocksOffsets(解压后的数据块索引到具体数据的偏移)" style="text;html=1;strokeColor=none;fillColor=none;align=left;verticalAlign=top;spacingLeft=4;spacingRight=4;whiteSpace=wrap;overflow=hidden;rotatable=0;points=[[0,0.5],[1,0.5]];portConstraint=eastwest;" parent="78961159f06e98e8-17" vertex="1">
          <mxGeometry y="104" width="280" height="36" as="geometry" />
        </mxCell>
        <mxCell id="78961159f06e98e8-24" value="arrCompressedBlocksOffsets&lt;br&gt;(压缩数据块索引到具体数据的偏移)" style="text;html=1;strokeColor=none;fillColor=none;align=left;verticalAlign=top;spacingLeft=4;spacingRight=4;whiteSpace=wrap;overflow=hidden;rotatable=0;points=[[0,0.5],[1,0.5]];portConstraint=eastwest;" parent="78961159f06e98e8-17" vertex="1">
          <mxGeometry y="140" width="280" height="40" as="geometry" />
        </mxCell>
        <mxCell id="H7Ohms2Mga-NkrCuYr1O-47" value="m_CachedBlocks&lt;br&gt;(缓存的解压后的Block数据块)" style="text;html=1;strokeColor=none;fillColor=none;align=left;verticalAlign=top;spacingLeft=4;spacingRight=4;whiteSpace=wrap;overflow=hidden;rotatable=0;points=[[0,0.5],[1,0.5]];portConstraint=eastwest;" parent="78961159f06e98e8-17" vertex="1">
          <mxGeometry y="180" width="280" height="40" as="geometry" />
        </mxCell>
        <mxCell id="78961159f06e98e8-19" value="" style="line;html=1;strokeWidth=1;fillColor=none;align=left;verticalAlign=middle;spacingTop=-1;spacingLeft=3;spacingRight=3;rotatable=0;labelPosition=right;points=[];portConstraint=eastwest;" parent="78961159f06e98e8-17" vertex="1">
          <mxGeometry y="220" width="280" height="8" as="geometry" />
        </mxCell>
        <mxCell id="H7Ohms2Mga-NkrCuYr1O-34" value="ReadBlock(读取某个Block数据块)" style="text;html=1;strokeColor=none;fillColor=none;align=left;verticalAlign=top;spacingLeft=4;spacingRight=4;whiteSpace=wrap;overflow=hidden;rotatable=0;points=[[0,0.5],[1,0.5]];portConstraint=eastwest;" parent="78961159f06e98e8-17" vertex="1">
          <mxGeometry y="228" width="280" height="26" as="geometry" />
        </mxCell>
        <mxCell id="H7Ohms2Mga-NkrCuYr1O-2" value="Header" style="swimlane;fontStyle=1;align=center;verticalAlign=top;childLayout=stackLayout;horizontal=1;startSize=26;horizontalStack=0;resizeParent=1;resizeParentMax=0;resizeLast=0;collapsible=1;marginBottom=0;" parent="1" vertex="1">
          <mxGeometry x="80" y="404" width="320" height="164" as="geometry" />
        </mxCell>
        <mxCell id="H7Ohms2Mga-NkrCuYr1O-3" value="size(文件数据大小)" style="text;strokeColor=none;fillColor=none;align=left;verticalAlign=top;spacingLeft=4;spacingRight=4;overflow=hidden;rotatable=0;points=[[0,0.5],[1,0.5]];portConstraint=eastwest;" parent="H7Ohms2Mga-NkrCuYr1O-2" vertex="1">
          <mxGeometry y="26" width="320" height="26" as="geometry" />
        </mxCell>
        <mxCell id="H7Ohms2Mga-NkrCuYr1O-8" value="compressedBlocksInfoSize(Block数据块压缩后的大小)" style="text;strokeColor=none;fillColor=none;align=left;verticalAlign=top;spacingLeft=4;spacingRight=4;overflow=hidden;rotatable=0;points=[[0,0.5],[1,0.5]];portConstraint=eastwest;" parent="H7Ohms2Mga-NkrCuYr1O-2" vertex="1">
          <mxGeometry y="52" width="320" height="26" as="geometry" />
        </mxCell>
        <mxCell id="H7Ohms2Mga-NkrCuYr1O-7" value="uncompressedBlocksInfoSize(压缩前的Block数据块大小)" style="text;strokeColor=none;fillColor=none;align=left;verticalAlign=top;spacingLeft=4;spacingRight=4;overflow=hidden;rotatable=0;points=[[0,0.5],[1,0.5]];portConstraint=eastwest;" parent="H7Ohms2Mga-NkrCuYr1O-2" vertex="1">
          <mxGeometry y="78" width="320" height="26" as="geometry" />
        </mxCell>
        <mxCell id="H7Ohms2Mga-NkrCuYr1O-9" value="flag(描述数据块的属性比如压缩等)" style="text;strokeColor=none;fillColor=none;align=left;verticalAlign=top;spacingLeft=4;spacingRight=4;overflow=hidden;rotatable=0;points=[[0,0.5],[1,0.5]];portConstraint=eastwest;" parent="H7Ohms2Mga-NkrCuYr1O-2" vertex="1">
          <mxGeometry y="104" width="320" height="26" as="geometry" />
        </mxCell>
        <mxCell id="H7Ohms2Mga-NkrCuYr1O-10" value="block_data(具体的Block数据，变长数组)" style="text;strokeColor=none;fillColor=none;align=left;verticalAlign=top;spacingLeft=4;spacingRight=4;overflow=hidden;rotatable=0;points=[[0,0.5],[1,0.5]];portConstraint=eastwest;" parent="H7Ohms2Mga-NkrCuYr1O-2" vertex="1">
          <mxGeometry y="130" width="320" height="26" as="geometry" />
        </mxCell>
        <mxCell id="H7Ohms2Mga-NkrCuYr1O-4" value="" style="line;strokeWidth=1;fillColor=none;align=left;verticalAlign=middle;spacingTop=-1;spacingLeft=3;spacingRight=3;rotatable=0;labelPosition=right;points=[];portConstraint=eastwest;" parent="H7Ohms2Mga-NkrCuYr1O-2" vertex="1">
          <mxGeometry y="156" width="320" height="8" as="geometry" />
        </mxCell>
        <mxCell id="H7Ohms2Mga-NkrCuYr1O-11" value="StorageBlock" style="swimlane;fontStyle=1;align=center;verticalAlign=top;childLayout=stackLayout;horizontal=1;startSize=26;horizontalStack=0;resizeParent=1;resizeParentMax=0;resizeLast=0;collapsible=1;marginBottom=0;" parent="1" vertex="1">
          <mxGeometry x="790" y="292" width="250" height="112" as="geometry" />
        </mxCell>
        <mxCell id="H7Ohms2Mga-NkrCuYr1O-12" value="uncompressedSize(数据块压缩前的大小)" style="text;strokeColor=none;fillColor=none;align=left;verticalAlign=top;spacingLeft=4;spacingRight=4;overflow=hidden;rotatable=0;points=[[0,0.5],[1,0.5]];portConstraint=eastwest;" parent="H7Ohms2Mga-NkrCuYr1O-11" vertex="1">
          <mxGeometry y="26" width="250" height="26" as="geometry" />
        </mxCell>
        <mxCell id="H7Ohms2Mga-NkrCuYr1O-15" value="compressedSize(数据块压缩后的大小)" style="text;strokeColor=none;fillColor=none;align=left;verticalAlign=top;spacingLeft=4;spacingRight=4;overflow=hidden;rotatable=0;points=[[0,0.5],[1,0.5]];portConstraint=eastwest;" parent="H7Ohms2Mga-NkrCuYr1O-11" vertex="1">
          <mxGeometry y="52" width="250" height="26" as="geometry" />
        </mxCell>
        <mxCell id="H7Ohms2Mga-NkrCuYr1O-16" value="flags" style="text;strokeColor=none;fillColor=none;align=left;verticalAlign=top;spacingLeft=4;spacingRight=4;overflow=hidden;rotatable=0;points=[[0,0.5],[1,0.5]];portConstraint=eastwest;" parent="H7Ohms2Mga-NkrCuYr1O-11" vertex="1">
          <mxGeometry y="78" width="250" height="26" as="geometry" />
        </mxCell>
        <mxCell id="H7Ohms2Mga-NkrCuYr1O-13" value="" style="line;strokeWidth=1;fillColor=none;align=left;verticalAlign=middle;spacingTop=-1;spacingLeft=3;spacingRight=3;rotatable=0;labelPosition=right;points=[];portConstraint=eastwest;" parent="H7Ohms2Mga-NkrCuYr1O-11" vertex="1">
          <mxGeometry y="104" width="250" height="8" as="geometry" />
        </mxCell>
        <mxCell id="H7Ohms2Mga-NkrCuYr1O-17" value="BlocksInfo" style="swimlane;fontStyle=1;align=center;verticalAlign=top;childLayout=stackLayout;horizontal=1;startSize=26;horizontalStack=0;resizeParent=1;resizeParentMax=0;resizeLast=0;collapsible=1;marginBottom=0;" parent="1" vertex="1">
          <mxGeometry x="790" y="163.5" width="230" height="86" as="geometry" />
        </mxCell>
        <mxCell id="H7Ohms2Mga-NkrCuYr1O-18" value="uncompressedDataHash" style="text;strokeColor=none;fillColor=none;align=left;verticalAlign=top;spacingLeft=4;spacingRight=4;overflow=hidden;rotatable=0;points=[[0,0.5],[1,0.5]];portConstraint=eastwest;" parent="H7Ohms2Mga-NkrCuYr1O-17" vertex="1">
          <mxGeometry y="26" width="230" height="26" as="geometry" />
        </mxCell>
        <mxCell id="H7Ohms2Mga-NkrCuYr1O-21" value="StorageBlock[](数据块信息数组)" style="text;strokeColor=none;fillColor=none;align=left;verticalAlign=top;spacingLeft=4;spacingRight=4;overflow=hidden;rotatable=0;points=[[0,0.5],[1,0.5]];portConstraint=eastwest;" parent="H7Ohms2Mga-NkrCuYr1O-17" vertex="1">
          <mxGeometry y="52" width="230" height="26" as="geometry" />
        </mxCell>
        <mxCell id="H7Ohms2Mga-NkrCuYr1O-19" value="" style="line;strokeWidth=1;fillColor=none;align=left;verticalAlign=middle;spacingTop=-1;spacingLeft=3;spacingRight=3;rotatable=0;labelPosition=right;points=[];portConstraint=eastwest;" parent="H7Ohms2Mga-NkrCuYr1O-17" vertex="1">
          <mxGeometry y="78" width="230" height="8" as="geometry" />
        </mxCell>
        <mxCell id="H7Ohms2Mga-NkrCuYr1O-27" value="DirectoryNode" style="swimlane;fontStyle=1;align=center;verticalAlign=top;childLayout=stackLayout;horizontal=1;startSize=26;horizontalStack=0;resizeParent=1;resizeParentMax=0;resizeLast=0;collapsible=1;marginBottom=0;" parent="1" vertex="1">
          <mxGeometry x="810" y="439" width="160" height="112" as="geometry" />
        </mxCell>
        <mxCell id="H7Ohms2Mga-NkrCuYr1O-28" value="offset(数据偏移)" style="text;strokeColor=none;fillColor=none;align=left;verticalAlign=top;spacingLeft=4;spacingRight=4;overflow=hidden;rotatable=0;points=[[0,0.5],[1,0.5]];portConstraint=eastwest;" parent="H7Ohms2Mga-NkrCuYr1O-27" vertex="1">
          <mxGeometry y="26" width="160" height="26" as="geometry" />
        </mxCell>
        <mxCell id="H7Ohms2Mga-NkrCuYr1O-31" value="size(数据块大小)" style="text;strokeColor=none;fillColor=none;align=left;verticalAlign=top;spacingLeft=4;spacingRight=4;overflow=hidden;rotatable=0;points=[[0,0.5],[1,0.5]];portConstraint=eastwest;" parent="H7Ohms2Mga-NkrCuYr1O-27" vertex="1">
          <mxGeometry y="52" width="160" height="26" as="geometry" />
        </mxCell>
        <mxCell id="H7Ohms2Mga-NkrCuYr1O-32" value="flags(标志位)" style="text;strokeColor=none;fillColor=none;align=left;verticalAlign=top;spacingLeft=4;spacingRight=4;overflow=hidden;rotatable=0;points=[[0,0.5],[1,0.5]];portConstraint=eastwest;" parent="H7Ohms2Mga-NkrCuYr1O-27" vertex="1">
          <mxGeometry y="78" width="160" height="26" as="geometry" />
        </mxCell>
        <mxCell id="H7Ohms2Mga-NkrCuYr1O-29" value="" style="line;strokeWidth=1;fillColor=none;align=left;verticalAlign=middle;spacingTop=-1;spacingLeft=3;spacingRight=3;rotatable=0;labelPosition=right;points=[];portConstraint=eastwest;" parent="H7Ohms2Mga-NkrCuYr1O-27" vertex="1">
          <mxGeometry y="104" width="160" height="8" as="geometry" />
        </mxCell>
        <mxCell id="H7Ohms2Mga-NkrCuYr1O-35" value="PersistentManager" style="swimlane;fontStyle=1;align=center;verticalAlign=top;childLayout=stackLayout;horizontal=1;startSize=26;horizontalStack=0;resizeParent=1;resizeParentMax=0;resizeLast=0;collapsible=1;marginBottom=0;" parent="1" vertex="1">
          <mxGeometry x="70" y="652" width="340" height="112" as="geometry" />
        </mxCell>
        <mxCell id="H7Ohms2Mga-NkrCuYr1O-36" value="std::map&lt;string, int&gt; m_PathToIndex" style="text;strokeColor=none;fillColor=none;align=left;verticalAlign=top;spacingLeft=4;spacingRight=4;overflow=hidden;rotatable=0;points=[[0,0.5],[1,0.5]];portConstraint=eastwest;" parent="H7Ohms2Mga-NkrCuYr1O-35" vertex="1">
          <mxGeometry y="26" width="340" height="26" as="geometry" />
        </mxCell>
        <mxCell id="H7Ohms2Mga-NkrCuYr1O-39" value="std::vector&lt;FileIdentifier&gt; m_IndexToFile&#xa;" style="text;strokeColor=none;fillColor=none;align=left;verticalAlign=top;spacingLeft=4;spacingRight=4;overflow=hidden;rotatable=0;points=[[0,0.5],[1,0.5]];portConstraint=eastwest;" parent="H7Ohms2Mga-NkrCuYr1O-35" vertex="1">
          <mxGeometry y="52" width="340" height="26" as="geometry" />
        </mxCell>
        <mxCell id="H7Ohms2Mga-NkrCuYr1O-40" value="dynamic_array&lt;StreamNameSpace&gt; m_Streams&#xa;" style="text;strokeColor=none;fillColor=none;align=left;verticalAlign=top;spacingLeft=4;spacingRight=4;overflow=hidden;rotatable=0;points=[[0,0.5],[1,0.5]];portConstraint=eastwest;" parent="H7Ohms2Mga-NkrCuYr1O-35" vertex="1">
          <mxGeometry y="78" width="340" height="26" as="geometry" />
        </mxCell>
        <mxCell id="H7Ohms2Mga-NkrCuYr1O-37" value="" style="line;strokeWidth=1;fillColor=none;align=left;verticalAlign=middle;spacingTop=-1;spacingLeft=3;spacingRight=3;rotatable=0;labelPosition=right;points=[];portConstraint=eastwest;" parent="H7Ohms2Mga-NkrCuYr1O-35" vertex="1">
          <mxGeometry y="104" width="340" height="8" as="geometry" />
        </mxCell>
        <mxCell id="H7Ohms2Mga-NkrCuYr1O-41" value="CachedBlock" style="swimlane;fontStyle=1;align=center;verticalAlign=top;childLayout=stackLayout;horizontal=1;startSize=26;horizontalStack=0;resizeParent=1;resizeParentMax=0;resizeLast=0;collapsible=1;marginBottom=0;" parent="1" vertex="1">
          <mxGeometry x="465" y="86" width="220" height="112" as="geometry" />
        </mxCell>
        <mxCell id="H7Ohms2Mga-NkrCuYr1O-42" value="blockIndex(block索引)" style="text;strokeColor=none;fillColor=none;align=left;verticalAlign=top;spacingLeft=4;spacingRight=4;overflow=hidden;rotatable=0;points=[[0,0.5],[1,0.5]];portConstraint=eastwest;" parent="H7Ohms2Mga-NkrCuYr1O-41" vertex="1">
          <mxGeometry y="26" width="220" height="26" as="geometry" />
        </mxCell>
        <mxCell id="H7Ohms2Mga-NkrCuYr1O-45" value="buffer(解压后的数据块)" style="text;strokeColor=none;fillColor=none;align=left;verticalAlign=top;spacingLeft=4;spacingRight=4;overflow=hidden;rotatable=0;points=[[0,0.5],[1,0.5]];portConstraint=eastwest;" parent="H7Ohms2Mga-NkrCuYr1O-41" vertex="1">
          <mxGeometry y="52" width="220" height="26" as="geometry" />
        </mxCell>
        <mxCell id="H7Ohms2Mga-NkrCuYr1O-46" value="compressedBuffer(解压前的数据块)" style="text;strokeColor=none;fillColor=none;align=left;verticalAlign=top;spacingLeft=4;spacingRight=4;overflow=hidden;rotatable=0;points=[[0,0.5],[1,0.5]];portConstraint=eastwest;" parent="H7Ohms2Mga-NkrCuYr1O-41" vertex="1">
          <mxGeometry y="78" width="220" height="26" as="geometry" />
        </mxCell>
        <mxCell id="H7Ohms2Mga-NkrCuYr1O-43" value="" style="line;strokeWidth=1;fillColor=none;align=left;verticalAlign=middle;spacingTop=-1;spacingLeft=3;spacingRight=3;rotatable=0;labelPosition=right;points=[];portConstraint=eastwest;" parent="H7Ohms2Mga-NkrCuYr1O-41" vertex="1">
          <mxGeometry y="104" width="220" height="8" as="geometry" />
        </mxCell>
        <mxCell id="H7Ohms2Mga-NkrCuYr1O-48" value="ObjectInfo" style="swimlane;fontStyle=1;align=center;verticalAlign=top;childLayout=stackLayout;horizontal=1;startSize=26;horizontalStack=0;resizeParent=1;resizeParentMax=0;resizeLast=0;collapsible=1;marginBottom=0;" parent="1" vertex="1">
          <mxGeometry x="475" y="218.5" width="180" height="112" as="geometry" />
        </mxCell>
        <mxCell id="H7Ohms2Mga-NkrCuYr1O-49" value="byteStart(对象数据起始偏移)&#xa;" style="text;strokeColor=none;fillColor=none;align=left;verticalAlign=top;spacingLeft=4;spacingRight=4;overflow=hidden;rotatable=0;points=[[0,0.5],[1,0.5]];portConstraint=eastwest;" parent="H7Ohms2Mga-NkrCuYr1O-48" vertex="1">
          <mxGeometry y="26" width="180" height="26" as="geometry" />
        </mxCell>
        <mxCell id="H7Ohms2Mga-NkrCuYr1O-52" value="byteSize(对象数据块大小)" style="text;strokeColor=none;fillColor=none;align=left;verticalAlign=top;spacingLeft=4;spacingRight=4;overflow=hidden;rotatable=0;points=[[0,0.5],[1,0.5]];portConstraint=eastwest;" parent="H7Ohms2Mga-NkrCuYr1O-48" vertex="1">
          <mxGeometry y="52" width="180" height="26" as="geometry" />
        </mxCell>
        <mxCell id="H7Ohms2Mga-NkrCuYr1O-53" value="typeID(对象数据类型)" style="text;strokeColor=none;fillColor=none;align=left;verticalAlign=top;spacingLeft=4;spacingRight=4;overflow=hidden;rotatable=0;points=[[0,0.5],[1,0.5]];portConstraint=eastwest;" parent="H7Ohms2Mga-NkrCuYr1O-48" vertex="1">
          <mxGeometry y="78" width="180" height="26" as="geometry" />
        </mxCell>
        <mxCell id="H7Ohms2Mga-NkrCuYr1O-50" value="" style="line;strokeWidth=1;fillColor=none;align=left;verticalAlign=middle;spacingTop=-1;spacingLeft=3;spacingRight=3;rotatable=0;labelPosition=right;points=[];portConstraint=eastwest;" parent="H7Ohms2Mga-NkrCuYr1O-48" vertex="1">
          <mxGeometry y="104" width="180" height="8" as="geometry" />
        </mxCell>
        <mxCell id="H7Ohms2Mga-NkrCuYr1O-54" value="LocalSerializedObjectIdentifier" style="swimlane;fontStyle=1;align=center;verticalAlign=top;childLayout=stackLayout;horizontal=1;startSize=26;horizontalStack=0;resizeParent=1;resizeParentMax=0;resizeLast=0;collapsible=1;marginBottom=0;" parent="1" vertex="1">
          <mxGeometry x="465" y="353.5" width="210" height="86" as="geometry" />
        </mxCell>
        <mxCell id="H7Ohms2Mga-NkrCuYr1O-55" value="localSerializedFileIndex : int32" style="text;strokeColor=none;fillColor=none;align=left;verticalAlign=top;spacingLeft=4;spacingRight=4;overflow=hidden;rotatable=0;points=[[0,0.5],[1,0.5]];portConstraint=eastwest;" parent="H7Ohms2Mga-NkrCuYr1O-54" vertex="1">
          <mxGeometry y="26" width="210" height="26" as="geometry" />
        </mxCell>
        <mxCell id="H7Ohms2Mga-NkrCuYr1O-57" value="localIdentifierInFile : int64" style="text;strokeColor=none;fillColor=none;align=left;verticalAlign=top;spacingLeft=4;spacingRight=4;overflow=hidden;rotatable=0;points=[[0,0.5],[1,0.5]];portConstraint=eastwest;" parent="H7Ohms2Mga-NkrCuYr1O-54" vertex="1">
          <mxGeometry y="52" width="210" height="26" as="geometry" />
        </mxCell>
        <mxCell id="H7Ohms2Mga-NkrCuYr1O-56" value="" style="line;strokeWidth=1;fillColor=none;align=left;verticalAlign=middle;spacingTop=-1;spacingLeft=3;spacingRight=3;rotatable=0;labelPosition=right;points=[];portConstraint=eastwest;" parent="H7Ohms2Mga-NkrCuYr1O-54" vertex="1">
          <mxGeometry y="78" width="210" height="8" as="geometry" />
        </mxCell>
        <mxCell id="H7Ohms2Mga-NkrCuYr1O-59" value="AssetInfo" style="swimlane;fontStyle=1;align=center;verticalAlign=top;childLayout=stackLayout;horizontal=1;startSize=26;horizontalStack=0;resizeParent=1;resizeParentMax=0;resizeLast=0;collapsible=1;marginBottom=0;" parent="1" vertex="1">
          <mxGeometry x="465" y="482" width="250" height="112" as="geometry" />
        </mxCell>
        <mxCell id="H7Ohms2Mga-NkrCuYr1O-60" value="preloadIndex (preload对象开始的索引)" style="text;strokeColor=none;fillColor=none;align=left;verticalAlign=top;spacingLeft=4;spacingRight=4;overflow=hidden;rotatable=0;points=[[0,0.5],[1,0.5]];portConstraint=eastwest;" parent="H7Ohms2Mga-NkrCuYr1O-59" vertex="1">
          <mxGeometry y="26" width="250" height="26" as="geometry" />
        </mxCell>
        <mxCell id="H7Ohms2Mga-NkrCuYr1O-62" value="preloadSize (preload对象的数量)" style="text;strokeColor=none;fillColor=none;align=left;verticalAlign=top;spacingLeft=4;spacingRight=4;overflow=hidden;rotatable=0;points=[[0,0.5],[1,0.5]];portConstraint=eastwest;" parent="H7Ohms2Mga-NkrCuYr1O-59" vertex="1">
          <mxGeometry y="52" width="250" height="26" as="geometry" />
        </mxCell>
        <mxCell id="H7Ohms2Mga-NkrCuYr1O-63" value="PPtr&lt;Object&gt; asset (目标Object对象)" style="text;strokeColor=none;fillColor=none;align=left;verticalAlign=top;spacingLeft=4;spacingRight=4;overflow=hidden;rotatable=0;points=[[0,0.5],[1,0.5]];portConstraint=eastwest;" parent="H7Ohms2Mga-NkrCuYr1O-59" vertex="1">
          <mxGeometry y="78" width="250" height="26" as="geometry" />
        </mxCell>
        <mxCell id="H7Ohms2Mga-NkrCuYr1O-61" value="" style="line;strokeWidth=1;fillColor=none;align=left;verticalAlign=middle;spacingTop=-1;spacingLeft=3;spacingRight=3;rotatable=0;labelPosition=right;points=[];portConstraint=eastwest;" parent="H7Ohms2Mga-NkrCuYr1O-59" vertex="1">
          <mxGeometry y="104" width="250" height="8" as="geometry" />
        </mxCell>
        <mxCell id="H7Ohms2Mga-NkrCuYr1O-64" value="AssetBundle" style="swimlane;fontStyle=1;align=center;verticalAlign=top;childLayout=stackLayout;horizontal=1;startSize=26;horizontalStack=0;resizeParent=1;resizeParentMax=0;resizeLast=0;collapsible=1;marginBottom=0;" parent="1" vertex="1">
          <mxGeometry x="465" y="618" width="280" height="190" as="geometry" />
        </mxCell>
        <mxCell id="H7Ohms2Mga-NkrCuYr1O-65" value="array&lt;PPtr&lt;Object&gt;&gt; m_PreloadTable" style="text;strokeColor=none;fillColor=none;align=left;verticalAlign=top;spacingLeft=4;spacingRight=4;overflow=hidden;rotatable=0;points=[[0,0.5],[1,0.5]];portConstraint=eastwest;" parent="H7Ohms2Mga-NkrCuYr1O-64" vertex="1">
          <mxGeometry y="26" width="280" height="26" as="geometry" />
        </mxCell>
        <mxCell id="H7Ohms2Mga-NkrCuYr1O-67" value="std::map&lt;string, AssetInfo&gt; m_PathContainer" style="text;strokeColor=none;fillColor=none;align=left;verticalAlign=top;spacingLeft=4;spacingRight=4;overflow=hidden;rotatable=0;points=[[0,0.5],[1,0.5]];portConstraint=eastwest;" parent="H7Ohms2Mga-NkrCuYr1O-64" vertex="1">
          <mxGeometry y="52" width="280" height="26" as="geometry" />
        </mxCell>
        <mxCell id="H7Ohms2Mga-NkrCuYr1O-68" value="std::map&lt;string, AssetInfo&gt; m_NameContainer" style="text;strokeColor=none;fillColor=none;align=left;verticalAlign=top;spacingLeft=4;spacingRight=4;overflow=hidden;rotatable=0;points=[[0,0.5],[1,0.5]];portConstraint=eastwest;" parent="H7Ohms2Mga-NkrCuYr1O-64" vertex="1">
          <mxGeometry y="78" width="280" height="26" as="geometry" />
        </mxCell>
        <mxCell id="H7Ohms2Mga-NkrCuYr1O-69" value="std::map&lt;string, AssetInfo&gt; m_FileContainer" style="text;strokeColor=none;fillColor=none;align=left;verticalAlign=top;spacingLeft=4;spacingRight=4;overflow=hidden;rotatable=0;points=[[0,0.5],[1,0.5]];portConstraint=eastwest;" parent="H7Ohms2Mga-NkrCuYr1O-64" vertex="1">
          <mxGeometry y="104" width="280" height="26" as="geometry" />
        </mxCell>
        <mxCell id="H7Ohms2Mga-NkrCuYr1O-70" value="ArchiveStorageReader* m_ArchiveStorage" style="text;strokeColor=none;fillColor=none;align=left;verticalAlign=top;spacingLeft=4;spacingRight=4;overflow=hidden;rotatable=0;points=[[0,0.5],[1,0.5]];portConstraint=eastwest;" parent="H7Ohms2Mga-NkrCuYr1O-64" vertex="1">
          <mxGeometry y="130" width="280" height="26" as="geometry" />
        </mxCell>
        <mxCell id="H7Ohms2Mga-NkrCuYr1O-71" value="AssetLookupMap m_AssetLookupContainer" style="text;strokeColor=none;fillColor=none;align=left;verticalAlign=top;spacingLeft=4;spacingRight=4;overflow=hidden;rotatable=0;points=[[0,0.5],[1,0.5]];portConstraint=eastwest;" parent="H7Ohms2Mga-NkrCuYr1O-64" vertex="1">
          <mxGeometry y="156" width="280" height="26" as="geometry" />
        </mxCell>
        <mxCell id="H7Ohms2Mga-NkrCuYr1O-66" value="" style="line;strokeWidth=1;fillColor=none;align=left;verticalAlign=middle;spacingTop=-1;spacingLeft=3;spacingRight=3;rotatable=0;labelPosition=right;points=[];portConstraint=eastwest;" parent="H7Ohms2Mga-NkrCuYr1O-64" vertex="1">
          <mxGeometry y="182" width="280" height="8" as="geometry" />
        </mxCell>
        <mxCell id="nqz1BI6bNi6u1AY0hoQR-2" value="AssetBundle" style="swimlane;fontStyle=1;align=center;verticalAlign=top;childLayout=stackLayout;horizontal=1;startSize=26;horizontalStack=0;resizeParent=1;resizeParentMax=0;resizeLast=0;collapsible=1;marginBottom=0;" parent="1" vertex="1">
          <mxGeometry x="335" y="1140" width="280" height="52" as="geometry" />
        </mxCell>
        <mxCell id="nqz1BI6bNi6u1AY0hoQR-18" value="PathContainer / PreloadTable" style="text;strokeColor=none;fillColor=none;align=left;verticalAlign=top;spacingLeft=4;spacingRight=4;overflow=hidden;rotatable=0;points=[[0,0.5],[1,0.5]];portConstraint=eastwest;" parent="nqz1BI6bNi6u1AY0hoQR-2" vertex="1">
          <mxGeometry y="26" width="280" height="26" as="geometry" />
        </mxCell>
        <mxCell id="nqz1BI6bNi6u1AY0hoQR-12" value="SerializedFile" style="swimlane;fontStyle=1;align=center;verticalAlign=top;childLayout=stackLayout;horizontal=1;startSize=26;horizontalStack=0;resizeParent=1;resizeParentMax=0;resizeLast=0;collapsible=1;marginBottom=0;" parent="1" vertex="1">
          <mxGeometry x="335" y="1060" width="280" height="52" as="geometry" />
        </mxCell>
        <mxCell id="nqz1BI6bNi6u1AY0hoQR-17" value="ObjectMap" style="text;strokeColor=none;fillColor=none;align=left;verticalAlign=top;spacingLeft=4;spacingRight=4;overflow=hidden;rotatable=0;points=[[0,0.5],[1,0.5]];portConstraint=eastwest;" parent="nqz1BI6bNi6u1AY0hoQR-12" vertex="1">
          <mxGeometry y="26" width="280" height="26" as="geometry" />
        </mxCell>
        <mxCell id="nqz1BI6bNi6u1AY0hoQR-13" value="ArchiveStorageReader" style="swimlane;fontStyle=1;align=center;verticalAlign=top;childLayout=stackLayout;horizontal=1;startSize=26;horizontalStack=0;resizeParent=1;resizeParentMax=0;resizeLast=0;collapsible=1;marginBottom=0;" parent="1" vertex="1">
          <mxGeometry x="335" y="979" width="280" height="52" as="geometry" />
        </mxCell>
        <mxCell id="nqz1BI6bNi6u1AY0hoQR-16" value="blockdata" style="text;strokeColor=none;fillColor=none;align=left;verticalAlign=top;spacingLeft=4;spacingRight=4;overflow=hidden;rotatable=0;points=[[0,0.5],[1,0.5]];portConstraint=eastwest;" parent="nqz1BI6bNi6u1AY0hoQR-13" vertex="1">
          <mxGeometry y="26" width="280" height="26" as="geometry" />
        </mxCell>
        <mxCell id="aWxbbh5xR2T_jwE9LpkQ-1" value="" style="rounded=0;whiteSpace=wrap;html=1;strokeColor=#006EAF;fillColor=#1ba1e2;fontColor=#ffffff;" parent="1" vertex="1">
          <mxGeometry x="160" y="1340" width="110" height="280" as="geometry" />
        </mxCell>
        <mxCell id="aWxbbh5xR2T_jwE9LpkQ-4" style="edgeStyle=orthogonalEdgeStyle;rounded=0;orthogonalLoop=1;jettySize=auto;html=1;" parent="1" source="aWxbbh5xR2T_jwE9LpkQ-2" edge="1">
          <mxGeometry relative="1" as="geometry">
            <mxPoint x="440" y="1405" as="targetPoint" />
          </mxGeometry>
        </mxCell>
        <mxCell id="aWxbbh5xR2T_jwE9LpkQ-2" value="AddOperation" style="rounded=1;whiteSpace=wrap;html=1;" parent="1" vertex="1">
          <mxGeometry x="160" y="1390" width="110" height="30" as="geometry" />
        </mxCell>
        <mxCell id="aWxbbh5xR2T_jwE9LpkQ-5" value="" style="rounded=0;whiteSpace=wrap;html=1;strokeColor=#006EAF;fillColor=#1ba1e2;fontColor=#ffffff;" parent="1" vertex="1">
          <mxGeometry x="440" y="1340" width="110" height="280" as="geometry" />
        </mxCell>
        <mxCell id="aWxbbh5xR2T_jwE9LpkQ-6" value="Operation.Perform" style="rounded=1;whiteSpace=wrap;html=1;" parent="1" vertex="1">
          <mxGeometry x="440" y="1390" width="110" height="30" as="geometry" />
        </mxCell>
        <mxCell id="aWxbbh5xR2T_jwE9LpkQ-7" value="" style="endArrow=classic;html=1;exitX=0.5;exitY=1;exitDx=0;exitDy=0;entryX=1.027;entryY=0.475;entryDx=0;entryDy=0;entryPerimeter=0;" parent="1" source="aWxbbh5xR2T_jwE9LpkQ-6" target="aWxbbh5xR2T_jwE9LpkQ-1" edge="1">
          <mxGeometry width="50" height="50" relative="1" as="geometry">
            <mxPoint x="520" y="1250" as="sourcePoint" />
            <mxPoint x="570" y="1200" as="targetPoint" />
          </mxGeometry>
        </mxCell>
        <mxCell id="aWxbbh5xR2T_jwE9LpkQ-11" style="edgeStyle=orthogonalEdgeStyle;rounded=0;orthogonalLoop=1;jettySize=auto;html=1;exitX=0.5;exitY=1;exitDx=0;exitDy=0;entryX=0.5;entryY=0;entryDx=0;entryDy=0;" parent="1" source="aWxbbh5xR2T_jwE9LpkQ-8" target="aWxbbh5xR2T_jwE9LpkQ-9" edge="1">
          <mxGeometry relative="1" as="geometry" />
        </mxCell>
        <mxCell id="aWxbbh5xR2T_jwE9LpkQ-8" value="PushIntegrateQueue" style="rounded=1;whiteSpace=wrap;html=1;" parent="1" vertex="1">
          <mxGeometry x="160" y="1455" width="110" height="30" as="geometry" />
        </mxCell>
        <mxCell id="aWxbbh5xR2T_jwE9LpkQ-9" value="IntegrateMainThread&lt;br&gt;" style="rounded=1;whiteSpace=wrap;html=1;" parent="1" vertex="1">
          <mxGeometry x="160" y="1525" width="110" height="30" as="geometry" />
        </mxCell>
        <mxCell id="aWxbbh5xR2T_jwE9LpkQ-12" value="MainThread&lt;br style=&quot;font-size: 16px;&quot;&gt;" style="text;html=1;strokeColor=none;fillColor=none;align=center;verticalAlign=middle;whiteSpace=wrap;rounded=0;fontSize=16;" parent="1" vertex="1">
          <mxGeometry x="182" y="1310" width="40" height="20" as="geometry" />
        </mxCell>
        <mxCell id="aWxbbh5xR2T_jwE9LpkQ-13" value="PreloadThread" style="text;html=1;strokeColor=none;fillColor=none;align=center;verticalAlign=middle;whiteSpace=wrap;rounded=0;fontSize=16;" parent="1" vertex="1">
          <mxGeometry x="474" y="1310" width="40" height="20" as="geometry" />
        </mxCell>
        <mxCell id="aWxbbh5xR2T_jwE9LpkQ-14" value="" style="rounded=0;whiteSpace=wrap;html=1;strokeColor=#006EAF;fillColor=#1ba1e2;fontColor=#ffffff;" parent="1" vertex="1">
          <mxGeometry x="640" y="1340" width="110" height="280" as="geometry" />
        </mxCell>
        <mxCell id="aWxbbh5xR2T_jwE9LpkQ-15" style="edgeStyle=orthogonalEdgeStyle;rounded=0;orthogonalLoop=1;jettySize=auto;html=1;" parent="1" source="aWxbbh5xR2T_jwE9LpkQ-16" edge="1">
          <mxGeometry relative="1" as="geometry">
            <mxPoint x="920" y="1405" as="targetPoint" />
          </mxGeometry>
        </mxCell>
        <mxCell id="aWxbbh5xR2T_jwE9LpkQ-16" value="Instantiate.Produce" style="rounded=1;whiteSpace=wrap;html=1;" parent="1" vertex="1">
          <mxGeometry x="640" y="1390" width="110" height="30" as="geometry" />
        </mxCell>
        <mxCell id="aWxbbh5xR2T_jwE9LpkQ-17" value="" style="rounded=0;whiteSpace=wrap;html=1;strokeColor=#006EAF;fillColor=#1ba1e2;fontColor=#ffffff;" parent="1" vertex="1">
          <mxGeometry x="920" y="1340" width="110" height="280" as="geometry" />
        </mxCell>
        <mxCell id="aWxbbh5xR2T_jwE9LpkQ-18" value="Instantiate.Copy" style="rounded=1;whiteSpace=wrap;html=1;" parent="1" vertex="1">
          <mxGeometry x="920" y="1390" width="110" height="30" as="geometry" />
        </mxCell>
        <mxCell id="aWxbbh5xR2T_jwE9LpkQ-19" value="" style="endArrow=classic;html=1;exitX=0.5;exitY=1;exitDx=0;exitDy=0;entryX=1.027;entryY=0.475;entryDx=0;entryDy=0;entryPerimeter=0;" parent="1" source="aWxbbh5xR2T_jwE9LpkQ-18" target="aWxbbh5xR2T_jwE9LpkQ-14" edge="1">
          <mxGeometry width="50" height="50" relative="1" as="geometry">
            <mxPoint x="1000" y="1250" as="sourcePoint" />
            <mxPoint x="1050" y="1200" as="targetPoint" />
          </mxGeometry>
        </mxCell>
        <mxCell id="aWxbbh5xR2T_jwE9LpkQ-22" value="Instantiate.Awake" style="rounded=1;whiteSpace=wrap;html=1;" parent="1" vertex="1">
          <mxGeometry x="640" y="1465" width="110" height="30" as="geometry" />
        </mxCell>
        <mxCell id="aWxbbh5xR2T_jwE9LpkQ-23" value="MainThread&lt;br style=&quot;font-size: 16px;&quot;&gt;" style="text;html=1;strokeColor=none;fillColor=none;align=center;verticalAlign=middle;whiteSpace=wrap;rounded=0;fontSize=16;" parent="1" vertex="1">
          <mxGeometry x="662" y="1310" width="40" height="20" as="geometry" />
        </mxCell>
        <mxCell id="aWxbbh5xR2T_jwE9LpkQ-24" value="PreloadThread" style="text;html=1;strokeColor=none;fillColor=none;align=center;verticalAlign=middle;whiteSpace=wrap;rounded=0;fontSize=16;" parent="1" vertex="1">
          <mxGeometry x="954" y="1310" width="40" height="20" as="geometry" />
        </mxCell>
        <mxCell id="3RZFIvz6HB6YHiuWZ1vy-1" value="" style="rounded=0;whiteSpace=wrap;html=1;strokeColor=#006EAF;fillColor=#1ba1e2;fontColor=#ffffff;" vertex="1" parent="1">
          <mxGeometry x="180" y="1780" width="110" height="310" as="geometry" />
        </mxCell>
        <mxCell id="3RZFIvz6HB6YHiuWZ1vy-2" style="edgeStyle=orthogonalEdgeStyle;rounded=0;orthogonalLoop=1;jettySize=auto;html=1;" edge="1" source="3RZFIvz6HB6YHiuWZ1vy-3" parent="1">
          <mxGeometry relative="1" as="geometry">
            <mxPoint x="460" y="1845" as="targetPoint" />
          </mxGeometry>
        </mxCell>
        <mxCell id="3RZFIvz6HB6YHiuWZ1vy-3" value="CreateOperation&lt;br&gt;" style="rounded=1;whiteSpace=wrap;html=1;" vertex="1" parent="1">
          <mxGeometry x="180" y="1830" width="110" height="30" as="geometry" />
        </mxCell>
        <mxCell id="3RZFIvz6HB6YHiuWZ1vy-4" value="" style="rounded=0;whiteSpace=wrap;html=1;strokeColor=#006EAF;fillColor=#1ba1e2;fontColor=#ffffff;" vertex="1" parent="1">
          <mxGeometry x="460" y="1780" width="110" height="300" as="geometry" />
        </mxCell>
        <mxCell id="3RZFIvz6HB6YHiuWZ1vy-5" value="NewObjectInstance" style="rounded=1;whiteSpace=wrap;html=1;" vertex="1" parent="1">
          <mxGeometry x="460" y="1830" width="110" height="30" as="geometry" />
        </mxCell>
        <mxCell id="3RZFIvz6HB6YHiuWZ1vy-6" value="" style="endArrow=classic;html=1;exitX=0.5;exitY=1;exitDx=0;exitDy=0;entryX=1;entryY=0.25;entryDx=0;entryDy=0;" edge="1" source="3RZFIvz6HB6YHiuWZ1vy-5" target="3RZFIvz6HB6YHiuWZ1vy-7" parent="1">
          <mxGeometry width="50" height="50" relative="1" as="geometry">
            <mxPoint x="540" y="1690" as="sourcePoint" />
            <mxPoint x="590" y="1640" as="targetPoint" />
          </mxGeometry>
        </mxCell>
        <mxCell id="3RZFIvz6HB6YHiuWZ1vy-7" value="ProduceObjects" style="rounded=1;whiteSpace=wrap;html=1;" vertex="1" parent="1">
          <mxGeometry x="180" y="1905" width="110" height="30" as="geometry" />
        </mxCell>
        <mxCell id="3RZFIvz6HB6YHiuWZ1vy-8" value="MainThread&lt;br style=&quot;font-size: 16px;&quot;&gt;" style="text;html=1;strokeColor=none;fillColor=none;align=center;verticalAlign=middle;whiteSpace=wrap;rounded=0;fontSize=16;" vertex="1" parent="1">
          <mxGeometry x="202" y="1750" width="40" height="20" as="geometry" />
        </mxCell>
        <mxCell id="3RZFIvz6HB6YHiuWZ1vy-9" value="PreloadThread" style="text;html=1;strokeColor=none;fillColor=none;align=center;verticalAlign=middle;whiteSpace=wrap;rounded=0;fontSize=16;" vertex="1" parent="1">
          <mxGeometry x="494" y="1750" width="40" height="20" as="geometry" />
        </mxCell>
        <mxCell id="3RZFIvz6HB6YHiuWZ1vy-10" value="SerializeObjects" style="rounded=1;whiteSpace=wrap;html=1;" vertex="1" parent="1">
          <mxGeometry x="459" y="1960" width="110" height="30" as="geometry" />
        </mxCell>
        <mxCell id="3RZFIvz6HB6YHiuWZ1vy-11" value="Call Awake" style="rounded=1;whiteSpace=wrap;html=1;" vertex="1" parent="1">
          <mxGeometry x="180" y="2000" width="110" height="30" as="geometry" />
        </mxCell>
        <mxCell id="3RZFIvz6HB6YHiuWZ1vy-13" value="" style="endArrow=classic;html=1;exitX=0.5;exitY=1;exitDx=0;exitDy=0;entryX=0;entryY=0.5;entryDx=0;entryDy=0;" edge="1" parent="1" source="3RZFIvz6HB6YHiuWZ1vy-7" target="3RZFIvz6HB6YHiuWZ1vy-10">
          <mxGeometry width="50" height="50" relative="1" as="geometry">
            <mxPoint x="520" y="2080" as="sourcePoint" />
            <mxPoint x="570" y="2030" as="targetPoint" />
          </mxGeometry>
        </mxCell>
        <mxCell id="3RZFIvz6HB6YHiuWZ1vy-14" value="" style="endArrow=classic;html=1;exitX=0.5;exitY=1;exitDx=0;exitDy=0;entryX=1;entryY=0.5;entryDx=0;entryDy=0;" edge="1" parent="1" source="3RZFIvz6HB6YHiuWZ1vy-10" target="3RZFIvz6HB6YHiuWZ1vy-11">
          <mxGeometry width="50" height="50" relative="1" as="geometry">
            <mxPoint x="520" y="2080" as="sourcePoint" />
            <mxPoint x="690" y="2130" as="targetPoint" />
          </mxGeometry>
        </mxCell>
      </root>
    </mxGraphModel>
  </diagram>
</mxfile>
